<?xml version="1.0" encoding="UTF-8"?>
<svg width="476px" height="147px" viewBox="0 0 476 147" version="1.1" xmlns="http://www.w3.org/2000/svg" xmlns:xlink="http://www.w3.org/1999/xlink">
    <!-- Generator: Sketch 53.2 (72643) - https://sketchapp.com -->
    <title>分组 6</title>
    <desc>Created with Sketch.</desc>
    <defs>
        <polygon id="path-1" points="0 0.046574694 12.9021168 0.046574694 12.9021168 12.7289224 0 12.7289224"></polygon>
        <polygon id="path-3" points="0.0509104167 0.108322976 13.860875 0.108322976 13.860875 12.0714286 0.0509104167 12.0714286"></polygon>
        <polygon id="path-5" points="0.101094737 0.0985602675 13.9957263 0.0985602675 13.9957263 12 0.101094737 12"></polygon>
        <polygon id="path-7" points="0 40 28 40 28 0 0 0"></polygon>
    </defs>
    <g id="Page-1" stroke="none" stroke-width="1" fill="none" fill-rule="evenodd">
        <g id="page6" transform="translate(-44.000000, -140.000000)">
            <g id="分组-6" transform="translate(44.000000, 140.000000)">
                <rect id="矩形" fill="#FFFFFF" x="0" y="0" width="476" height="147" rx="8"></rect>
                <g id="score-background-2" transform="translate(12.000000, 9.000000)">
                    <g id="score-background">
                        <g id="分组-2-copy">
                            <rect id="矩形-copy-3" fill="#E5F7FF" x="0" y="0" width="310" height="123" rx="8"></rect>
                            <rect id="矩形" stroke="#F44C4C" fill="#FFFFFF" x="14.5" y="27.5" width="117" height="23" rx="11.5"></rect>
                            <rect id="矩形-copy-8" stroke="#F44C4C" fill="#FFFFFF" x="14.5" y="81.5" width="43" height="23" rx="11.5"></rect>
                            <g id="分组-7" transform="translate(64.000000, 79.000000)">
                                <rect id="矩形" fill="#B3D01C" x="138" y="0" width="45" height="26"></rect>
                                <rect id="矩形-copy-2" fill="#FDC401" x="92" y="0" width="45" height="26"></rect>
                                <rect id="矩形-copy-6" fill="#FB7029" x="46" y="0" width="45" height="26"></rect>
                                <rect id="矩形-copy-7" fill="#F44C4C" x="0" y="0" width="45" height="26"></rect>
                                <rect id="矩形-copy-9" fill="#59C7F9" x="184" y="0" width="45" height="26"></rect>
                                <text id="优秀" font-family="PingFang SC" font-style="Regular" font-size="12" font-weight="normal" fill="#FFFFFF">
                                    <tspan x="147" y="17">优秀</tspan>
                                </text>
                                <text id="良好" font-family="PingFang SC" font-style="Regular" font-size="12" font-weight="normal" fill="#FFFFFF">
                                    <tspan x="102" y="17">良好</tspan>
                                </text>
                                <text id="普通" font-family="PingFang SC" font-style="Regular" font-size="12" font-weight="normal" fill="#FFFFFF">
                                    <tspan x="55" y="17">普通</tspan>
                                </text>
                                <text id="待发展" font-family="PingFang SC" font-style="Regular" font-size="12" font-weight="normal" fill="#FFFFFF">
                                    <tspan x="5" y="17">待发展</tspan>
                                </text>
                                <text id="优异-copy-5" font-family="PingFang SC" font-style="Regular" font-size="12" font-weight="normal" fill="#FFFFFF">
                                    <tspan x="194" y="17">优异</tspan>
                                </text>
                            </g>
                            <text id="脑认知能力总分" font-family="PingFang SC" font-style="Regular" font-size="14" font-weight="normal" letter-spacing="0.100000001" fill="#F44C4C">
                                <tspan x="24" y="44">脑认知能力总分</tspan>
                            </text>
                            <text id="等级" font-family="PingFang SC" font-style="Regular" font-size="14" font-weight="normal" letter-spacing="0.100000001" fill="#F44C4C">
                                <tspan x="22" y="98">等级</tspan>
                            </text>
                        </g>
                        <text id="超过同年级学生比例-copy" font-family="PingFang SC" font-style="Regular" font-size="10" font-weight="normal" fill="#3F3F3F">
                            <tspan x="355" y="85">超过同年级学生比例</tspan>
                        </text>
                        <g id="分组-copy" transform="translate(409.000000, 25.000000)">
                            <g id="分组" transform="translate(0.000000, 5.000000)">
                                <path d="M13.0099621,38.1615618 L25.9122568,38.0496013 C25.9122568,38.0496013 25.2656779,27.3053768 16.4219832,25.6315113 C14.0128779,25.4223669 12.9538568,25.5050585 12.9538568,25.5050585 L12.9538568,25.5194088 C12.9583726,33.3539404 13.0099621,38.1615618 13.0099621,38.1615618" id="Fill-1" fill="#FFFFFF"></path>
                                <g transform="translate(0.000000, 25.432639)">
                                    <mask id="mask-2" fill="white">
                                        <use xlink:href="#path-1"></use>
                                    </mask>
                                    <g id="Clip-4"></g>
                                    <path d="M12.8506642,12.7289224 L-4.10526316e-05,12.6169619 C-4.10526316e-05,12.6169619 0.642158947,1.86279165 9.45287474,0.18906823 C11.8524011,-0.0200761561 12.9021168,0.0627575242 12.9021168,0.0627575242 L12.9021168,0.0771077844 C12.9021168,7.92130102 12.8506642,12.7289224 12.8506642,12.7289224" id="Fill-3" fill="#E1E6F7" mask="url(#mask-2)"></path>
                                </g>
                                <path d="M8.07041368,20.9599617 L17.0967926,20.9599617 L17.0967926,28.2301445 C17.0967926,28.2301445 14.8706453,31.8745423 12.6117926,31.8745423 C10.3574558,31.8745423 8.07041368,28.2301445 8.07041368,28.2301445 L8.07041368,20.9599617 Z" id="Fill-5" fill="#FFDDB8"></path>
                                <polyline id="Fill-7" fill="#E5C6A5" points="8.07041368 27.4027596 8.07041368 20.132861 17.0967926 20.132861 17.0967926 24.0986477"></polyline>
                                <path d="M8.16409579,23.2762784 C8.97036947,24.6874347 8.36073789,26.755435 9.12951684,27.9524741 C9.90281158,29.1496552 11.4400958,30.0108129 12.7477589,31.2713625 C11.0275168,32.1033934 8.16874842,31.5487061 6.90336947,29.3394764 C5.63785368,27.1302468 6.44412737,24.1036206 8.16409579,23.2762784" id="Fill-9" fill="#C74A4A"></path>
                                <path d="M11.5760621,29.7773441 L14.1255674,29.7773441 C14.7113884,29.7773441 15.1893779,30.2689471 15.1893779,30.8818879 L14.8706726,32.0937034 C14.8706726,32.7019555 14.1207779,33.1982472 13.7224305,33.1982472 L11.9837147,33.1982472 C11.5853674,33.1982472 10.8354726,32.7066442 10.8354726,32.0937034 L10.5167674,30.8818879 C10.5122516,30.2736358 10.9902411,29.7773441 11.5760621,29.7773441" id="Fill-11" fill="#E25656"></path>
                                <path d="M17.2233305,23.2762784 C16.4170568,24.6826039 17.0265516,26.7507463 16.2532568,27.9477854 C15.4798253,29.1398515 13.9380253,30.0011513 12.6304989,31.2615588 C14.3549832,32.0886169 17.7434674,30.9937347 19.0134989,28.7896199 C20.2790147,26.5803903 18.9431621,24.1036206 17.2233305,23.2762784 M12.6537621,31.8746417 C11.8806042,32.0255326 11.3931726,33.0961188 11.1494568,34.0790406 C10.8401937,35.3343332 10.6666779,36.8185195 10.5309305,38.0982501 C12.0961305,38.0982501 12.52732,38.0982501 14.1442463,38.1178574 C14.7114568,36.7211935 14.8425516,34.9742979 14.1207095,33.3052632 C13.7646463,32.4730902 13.2959621,31.7481889 12.6537621,31.8746417" id="Fill-13" fill="#E25656"></path>
                                <path d="M12.9396663,0.113750677 C6.79559263,0.113750677 2.33385579,5.36424094 2.33385579,11.8410391 C2.33385579,14.0163112 2.86822421,17.7969654 3.79628737,19.5391722 C5.62846632,22.9843713 11.5243084,23.8651363 12.9538979,23.9282206 C12.9584137,17.7046122 12.9396663,8.19621506 12.9396663,0.113750677" id="Fill-15" fill="#F5D4B1"></path>
                            </g>
                            <g id="分组" transform="translate(1.000000, 0.000000)">
                                <path d="M11.9003661,5.08930098 C17.9882305,5.08930098 22.4139932,10.3425657 22.4139932,16.8227863 C22.4139932,18.9992078 21.8846373,22.7818598 20.9651797,24.5249873 C19.1448407,27.9720069 13.3028068,28.8532373 11.8864,28.9163549 C11.8864,22.6846245 11.9003661,13.1760363 11.9003661,5.08930098" id="Fill-17" fill="#FFDDB8"></path>
                                <path d="M14.5288,0.016220098 L12.1928,2.66474461 C12.1928,2.66474461 5.40364746,2.52358284 1.87890169,6.96854363 C-1.39499661,11.0923721 0.471850847,18.5900093 1.16378305,19.3252446 C1.1128,18.9941613 2.88188475,19.7731809 2.73354576,19.2133672 C1.25666441,13.6874456 6.62954576,17.1975828 10.4932746,16.2336172 C15.8151729,14.9045926 19.0797153,12.6309358 19.7297492,13.2540093 C21.3320542,15.1284897 21.2158508,19.9824358 21.2158508,19.9824358 C21.2158508,19.9824358 24.257478,17.3728623 23.9742237,12.5919848 C23.7793763,9.31043578 21.6200542,6.00955343 20.0504271,4.97735245 C18.4760542,3.94515147 17.3430373,3.44376422 16.0193763,3.21005833 C16.2981559,2.7329799 16.4467661,1.55478382 16.4467661,1.55478382 L14.7468339,2.66005343 L14.5288,0.016220098 Z" id="Fill-19" fill="#424242"></path>
                            </g>
                            <g id="分组" transform="translate(1.000000, 16.000000)">
                                <path d="M23.2464398,0.1639 C23.941379,0.418328571 24.1412022,1.78847143 23.6962077,3.22175714 C23.2464398,4.66032857 22.3201193,5.61918571 21.6253127,5.36461429 C20.9303735,5.11047143 20.7305503,3.74047143 21.1756773,2.30675714 C21.6206718,0.873471429 22.5471249,-0.0855285714 23.2464398,0.1639" id="Fill-21" fill="#FFDDB8"></path>
                                <path d="M0.694912707,0.325457143 C0.000106077348,0.579742857 -0.199717127,1.96931429 0.245277348,3.42717143 C0.694912707,4.88517143 1.62110055,5.85388571 2.31617238,5.59974286 C3.01084641,5.34545714 3.21066961,3.9556 2.76554254,2.49774286 C2.31617238,1.0446 1.38958674,0.0710285714 0.694912707,0.325457143" id="Fill-23" fill="#F5D4B1"></path>
                                <path d="M11.1624133,20.6348857 C10.5492862,20.7913143 10.1632972,21.8627429 9.97249061,22.8558857 C9.73196022,24.1134571 9.59565083,25.5908857 9.48665635,26.8776 C10.3811536,26.8826 10.5539271,26.8826 11.2212862,26.8678857 C12.2568663,25.3366 13.019695,23.7170286 12.9198497,21.9556 C12.8697282,21.0554571 11.6710541,20.5074571 11.1624133,20.6348857" id="Fill-25" fill="#C74A4A"></path>
                            </g>
                        </g>
                        <g id="分组-copy-2" transform="translate(374.000000, 27.000000)">
                            <path d="M27,11.0930185 C26.4337506,5.43944442 20.8041451,1 14.0000744,1 C7.19585487,1 1.56624941,5.43944442 1,11.0930185 L27,11.0930185 Z M1,28 L27,28 L27,11.0930185 L1,11.0930185 L1,28 Z" id="Fill-1" fill="#D64A29"></path>
                            <g id="分组" transform="translate(14.000000, 28.000000)">
                                <mask id="mask-4" fill="white">
                                    <use xlink:href="#path-3"></use>
                                </mask>
                                <g id="Clip-4"></g>
                                <path d="M0.110702083,12.071442 L13.8608896,11.9657499 C13.8608896,11.9657499 13.1716812,1.82306738 3.74691042,0.242917381 C1.17966042,0.0454824603 0.0509104167,0.123544365 0.0509104167,0.123544365 L0.0509104167,0.13709119 C0.05586875,7.53298722 0.110702083,12.071442 0.110702083,12.071442" id="Fill-3" fill="#FFFFFF" mask="url(#mask-4)"></path>
                            </g>
                            <g id="分组" transform="translate(0.000000, 28.000000)">
                                <mask id="mask-6" fill="white">
                                    <use xlink:href="#path-5"></use>
                                </mask>
                                <g id="Clip-6"></g>
                                <path d="M13.9403158,12.0000133 L0.101094737,11.8949467 C0.101094737,11.8949467 0.792694737,1.80294667 10.2811579,0.23228 C12.8654105,0.0360133333 13.9957263,0.113746667 13.9957263,0.113746667 L13.9957263,0.127213333 C13.9957263,7.48841333 13.9403158,12.0000133 13.9403158,12.0000133" id="Fill-5" fill="#E1E6F7" mask="url(#mask-6)"></path>
                            </g>
                            <path d="M9,23 L19,23 L19,29.6609823 C19,29.6609823 16.5336942,33 14.0311548,33 C11.53377,33 9,29.6609823 9,29.6609823 L9,23 Z" id="Fill-7" fill="#FFDDB8"></path>
                            <polyline id="Fill-9" fill="#E5C6A5" points="9 30 9 23 19 23 19 26.8185549"></polyline>
                            <path d="M10.0348546,27 C10.9082316,28.3499748 10.2480108,30.3283157 11.0807725,31.4734564 C11.9182776,32.6187331 13.5835046,33.4425548 15,34.6484525 C13.1365882,35.4444102 10.0400427,34.9137717 8.66935071,32.8003245 C7.29851048,30.6868773 8.17173927,27.7914723 10.0348546,27" id="Fill-11" fill="#C74A4A"></path>
                            <path d="M18.4503833,27 C17.5527908,28.2318252 18.2313171,30.0433476 17.3704387,31.0918551 C16.5094081,32.1360068 14.7931357,32.8904344 13.3373662,33.9944475 C15.2573183,34.7188822 19.029431,33.7598556 20.4434591,31.8292328 C21.8521552,29.8941297 20.3651558,27.7246836 18.4503833,27 M13.3634165,34.5314576 C12.5025381,34.6636256 11.9598999,35.6013709 11.6885808,36.4623294 C11.3441381,37.5618622 11.1509698,38.8618871 11,39.9828256 C12.742475,39.9828256 13.2225012,39.9828256 15.022561,40 C15.6538617,38.7766375 15.7999566,37.246501 14.9963584,35.7845641 C14.5999674,35.0556492 14.0781999,34.4206954 13.3634165,34.5314576" id="Fill-13" fill="#E25656"></path>
                            <path d="M13.9473548,34.01754 C13.2347989,34.167375 12.7862154,35.1936426 12.5644663,36.1449242 C12.2849299,37.3494886 12.1265157,38.7646432 12,39.9971221 C13.0395549,40.0019114 13.2403465,40.0019114 14.0159291,39.9878173 C15.2194458,38.5210757 16.1058258,36.9697697 15.989789,35.2825858 C15.9315394,34.4203842 14.5384803,33.8954825 13.9473548,34.01754" id="Fill-15" fill="#C74A4A"></path>
                            <path d="M3,15.5 C3,21.299021 7.70101083,26 13.5000711,26 C19.2991314,26 24,21.299021 24,15.5 C24,9.70112118 19.2991314,5 13.5000711,5 C7.70101083,5 3,9.70112118 3,15.5" id="Fill-17" fill="#FFDDB8"></path>
                            <path d="M14,5 C7.92483514,5 3,9.70101083 3,15.5002133 C3,21.2991314 7.92483514,26 14,26" id="Fill-19" fill="#F5D4B1"></path>
                            <mask id="mask-8" fill="white">
                                <use xlink:href="#path-7"></use>
                            </mask>
                            <g id="Clip-22"></g>
                            <polygon id="Fill-21" fill="#D64A29" mask="url(#mask-8)" points="5 13 21 13 21 5 5 5"></polygon>
                            <polygon id="Fill-23" fill="#D0A523" mask="url(#mask-8)" points="18.898553 4.18301546 16.3824022 0 13 4.889162 17.951864 5.74096833 20.6786995 10 24 5.19777869"></polygon>
                            <path d="M19,16.9998434 C19,18.0717552 19.6670703,19.0622338 20.7501096,19.5979391 C21.8328566,20.1340203 23.1669973,20.1340203 24.2498904,19.5979391 C25.3327835,19.0622338 26,18.0717552 26,16.9998434 C26,15.9281822 25.3327835,14.9378289 24.2498904,14.401873 C23.1669973,13.8660423 21.8328566,13.8660423 20.7501096,14.401873 C19.6670703,14.9378289 19,15.9281822 19,16.9998434" id="Fill-24" fill="#FFDDB8" mask="url(#mask-8)"></path>
                            <path d="M0,16.9998747 C0,18.6568529 1.56715109,20 3.50014616,20 C5.43299507,20 7,18.6568529 7,16.9998747 C7,15.3431471 5.43299507,14 3.50014616,14 C1.56715109,14 0,15.3431471 0,16.9998747" id="Fill-25" fill="#F5D4B1" mask="url(#mask-8)"></path>
                        </g>
                    </g>
                </g>
            </g>
        </g>
    </g>
</svg>
